<svg width="120" height="24" viewBox="0 0 120 24" fill="none" xmlns="http://www.w3.org/2000/svg">
<path d="M11.4797 3.499C11.522 3.39583 11.594 3.30758 11.6866 3.24546C11.7792 3.18334 11.8882 3.15018 11.9997 3.15018C12.1112 3.15018 12.2201 3.18334 12.3127 3.24546C12.4053 3.30758 12.4774 3.39583 12.5197 3.499L14.6447 8.61C14.6844 8.70564 14.7498 8.78844 14.8336 8.84931C14.9174 8.91018 15.0164 8.94675 15.1197 8.955L20.6377 9.397C21.1367 9.437 21.3387 10.06 20.9587 10.385L16.7547 13.987C16.6761 14.0542 16.6176 14.1417 16.5855 14.24C16.5534 14.3382 16.5489 14.4434 16.5727 14.544L17.8577 19.929C17.8835 20.037 17.8767 20.1503 17.8382 20.2545C17.7997 20.3587 17.7312 20.4491 17.6413 20.5144C17.5514 20.5797 17.4442 20.6169 17.3332 20.6212C17.2222 20.6256 17.1124 20.597 17.0177 20.539L12.2927 17.654C12.2044 17.6002 12.103 17.5717 11.9997 17.5717C11.8963 17.5717 11.7949 17.6002 11.7067 17.654L6.98166 20.54C6.88692 20.598 6.77712 20.6266 6.66612 20.6222C6.55512 20.6179 6.44791 20.5807 6.35803 20.5154C6.26815 20.4501 6.19962 20.3597 6.16111 20.2555C6.1226 20.1513 6.11584 20.038 6.14166 19.93L7.42666 14.544C7.45049 14.4434 7.44611 14.3382 7.414 14.2399C7.38189 14.1416 7.3233 14.0541 7.24466 13.987L3.04066 10.385C2.95648 10.3126 2.89557 10.2169 2.86561 10.11C2.83565 10.0031 2.83797 9.88974 2.87228 9.78415C2.90659 9.67855 2.97135 9.58546 3.05843 9.51657C3.1455 9.44769 3.25101 9.40609 3.36166 9.397L8.87966 8.955C8.98291 8.94675 9.08188 8.91018 9.16569 8.84931C9.2495 8.78844 9.31488 8.70564 9.35466 8.61L11.4797 3.499Z" fill="#FFC107" stroke="#FFC107" stroke-width="1.5" stroke-linecap="round" stroke-linejoin="round"/>
<path d="M35.4797 3.499C35.522 3.39583 35.594 3.30758 35.6866 3.24546C35.7792 3.18334 35.8882 3.15018 35.9997 3.15018C36.1112 3.15018 36.2201 3.18334 36.3127 3.24546C36.4053 3.30758 36.4774 3.39583 36.5197 3.499L38.6447 8.61C38.6844 8.70564 38.7498 8.78844 38.8336 8.84931C38.9174 8.91018 39.0164 8.94675 39.1197 8.955L44.6377 9.397C45.1367 9.437 45.3387 10.06 44.9587 10.385L40.7547 13.987C40.6761 14.0542 40.6176 14.1417 40.5855 14.24C40.5534 14.3382 40.5489 14.4434 40.5727 14.544L41.8577 19.929C41.8835 20.037 41.8767 20.1503 41.8382 20.2545C41.7997 20.3587 41.7312 20.4491 41.6413 20.5144C41.5514 20.5797 41.4442 20.6169 41.3332 20.6212C41.2222 20.6256 41.1124 20.597 41.0177 20.539L36.2927 17.654C36.2044 17.6002 36.103 17.5717 35.9997 17.5717C35.8963 17.5717 35.7949 17.6002 35.7067 17.654L30.9817 20.54C30.8869 20.598 30.7771 20.6266 30.6661 20.6222C30.5551 20.6179 30.4479 20.5807 30.358 20.5154C30.2681 20.4501 30.1996 20.3597 30.1611 20.2555C30.1226 20.1513 30.1158 20.038 30.1417 19.93L31.4267 14.544C31.4505 14.4434 31.4461 14.3382 31.414 14.2399C31.3819 14.1416 31.3233 14.0541 31.2447 13.987L27.0407 10.385C26.9565 10.3126 26.8956 10.2169 26.8656 10.11C26.8357 10.0031 26.838 9.88974 26.8723 9.78415C26.9066 9.67855 26.9714 9.58546 27.0584 9.51657C27.1455 9.44769 27.251 9.40609 27.3617 9.397L32.8797 8.955C32.9829 8.94675 33.0819 8.91018 33.1657 8.84931C33.2495 8.78844 33.3149 8.70564 33.3547 8.61L35.4797 3.499Z" fill="#FFC107" stroke="#FFC107" stroke-width="1.5" stroke-linecap="round" stroke-linejoin="round"/>
<path d="M59.4797 3.499C59.522 3.39583 59.594 3.30758 59.6866 3.24546C59.7792 3.18334 59.8882 3.15018 59.9997 3.15018C60.1112 3.15018 60.2201 3.18334 60.3127 3.24546C60.4053 3.30758 60.4774 3.39583 60.5197 3.499L62.6447 8.61C62.6844 8.70564 62.7498 8.78844 62.8336 8.84931C62.9174 8.91018 63.0164 8.94675 63.1197 8.955L68.6377 9.397C69.1367 9.437 69.3387 10.06 68.9587 10.385L64.7547 13.987C64.6761 14.0542 64.6176 14.1417 64.5855 14.24C64.5534 14.3382 64.5489 14.4434 64.5727 14.544L65.8577 19.929C65.8835 20.037 65.8767 20.1503 65.8382 20.2545C65.7997 20.3587 65.7312 20.4491 65.6413 20.5144C65.5514 20.5797 65.4442 20.6169 65.3332 20.6212C65.2222 20.6256 65.1124 20.597 65.0177 20.539L60.2927 17.654C60.2044 17.6002 60.103 17.5717 59.9997 17.5717C59.8963 17.5717 59.7949 17.6002 59.7067 17.654L54.9817 20.54C54.8869 20.598 54.7771 20.6266 54.6661 20.6222C54.5551 20.6179 54.4479 20.5807 54.358 20.5154C54.2681 20.4501 54.1996 20.3597 54.1611 20.2555C54.1226 20.1513 54.1158 20.038 54.1417 19.93L55.4267 14.544C55.4505 14.4434 55.4461 14.3382 55.414 14.2399C55.3819 14.1416 55.3233 14.0541 55.2447 13.987L51.0407 10.385C50.9565 10.3126 50.8956 10.2169 50.8656 10.11C50.8357 10.0031 50.838 9.88974 50.8723 9.78415C50.9066 9.67855 50.9714 9.58546 51.0584 9.51657C51.1455 9.44769 51.251 9.40609 51.3617 9.397L56.8797 8.955C56.9829 8.94675 57.0819 8.91018 57.1657 8.84931C57.2495 8.78844 57.3149 8.70564 57.3547 8.61L59.4797 3.499Z" stroke="#FFC107" stroke-width="1.5" stroke-linecap="round" stroke-linejoin="round"/>
<path d="M83.4797 3.499C83.522 3.39583 83.594 3.30758 83.6866 3.24546C83.7792 3.18334 83.8882 3.15018 83.9997 3.15018C84.1112 3.15018 84.2201 3.18334 84.3127 3.24546C84.4053 3.30758 84.4774 3.39583 84.5197 3.499L86.6447 8.61C86.6844 8.70564 86.7498 8.78844 86.8336 8.84931C86.9174 8.91018 87.0164 8.94675 87.1197 8.955L92.6377 9.397C93.1367 9.437 93.3387 10.06 92.9587 10.385L88.7547 13.987C88.6761 14.0542 88.6176 14.1417 88.5855 14.24C88.5534 14.3382 88.5489 14.4434 88.5727 14.544L89.8577 19.929C89.8835 20.037 89.8767 20.1503 89.8382 20.2545C89.7997 20.3587 89.7312 20.4491 89.6413 20.5144C89.5514 20.5797 89.4442 20.6169 89.3332 20.6212C89.2222 20.6256 89.1124 20.597 89.0177 20.539L84.2927 17.654C84.2044 17.6002 84.103 17.5717 83.9997 17.5717C83.8963 17.5717 83.7949 17.6002 83.7067 17.654L78.9817 20.54C78.8869 20.598 78.7771 20.6266 78.6661 20.6222C78.5551 20.6179 78.4479 20.5807 78.358 20.5154C78.2681 20.4501 78.1996 20.3597 78.1611 20.2555C78.1226 20.1513 78.1158 20.038 78.1417 19.93L79.4267 14.544C79.4505 14.4434 79.4461 14.3382 79.414 14.2399C79.3819 14.1416 79.3233 14.0541 79.2447 13.987L75.0407 10.385C74.9565 10.3126 74.8956 10.2169 74.8656 10.11C74.8357 10.0031 74.838 9.88974 74.8723 9.78415C74.9066 9.67855 74.9714 9.58546 75.0584 9.51657C75.1455 9.44769 75.251 9.40609 75.3617 9.397L80.8797 8.955C80.9829 8.94675 81.0819 8.91018 81.1657 8.84931C81.2495 8.78844 81.3149 8.70564 81.3547 8.61L83.4797 3.499Z" stroke="#FFC107" stroke-width="1.5" stroke-linecap="round" stroke-linejoin="round"/>
<path d="M107.48 3.499C107.522 3.39583 107.594 3.30758 107.687 3.24546C107.779 3.18334 107.888 3.15018 108 3.15018C108.111 3.15018 108.22 3.18334 108.313 3.24546C108.405 3.30758 108.477 3.39583 108.52 3.499L110.645 8.61C110.684 8.70564 110.75 8.78844 110.834 8.84931C110.917 8.91018 111.016 8.94675 111.12 8.955L116.638 9.397C117.137 9.437 117.339 10.06 116.959 10.385L112.755 13.987C112.676 14.0542 112.618 14.1417 112.585 14.24C112.553 14.3382 112.549 14.4434 112.573 14.544L113.858 19.929C113.883 20.037 113.877 20.1503 113.838 20.2545C113.8 20.3587 113.731 20.4491 113.641 20.5144C113.551 20.5797 113.444 20.6169 113.333 20.6212C113.222 20.6256 113.112 20.597 113.018 20.539L108.293 17.654C108.204 17.6002 108.103 17.5717 108 17.5717C107.896 17.5717 107.795 17.6002 107.707 17.654L102.982 20.54C102.887 20.598 102.777 20.6266 102.666 20.6222C102.555 20.6179 102.448 20.5807 102.358 20.5154C102.268 20.4501 102.2 20.3597 102.161 20.2555C102.123 20.1513 102.116 20.038 102.142 19.93L103.427 14.544C103.45 14.4434 103.446 14.3382 103.414 14.2399C103.382 14.1416 103.323 14.0541 103.245 13.987L99.0407 10.385C98.9565 10.3126 98.8956 10.2169 98.8656 10.11C98.8357 10.0031 98.838 9.88974 98.8723 9.78415C98.9066 9.67855 98.9714 9.58546 99.0584 9.51657C99.1455 9.44769 99.251 9.40609 99.3617 9.397L104.88 8.955C104.983 8.94675 105.082 8.91018 105.166 8.84931C105.249 8.78844 105.315 8.70564 105.355 8.61L107.48 3.499Z" stroke="#FFC107" stroke-width="1.5" stroke-linecap="round" stroke-linejoin="round"/>
</svg>
