<svg width="120" height="24" viewBox="0 0 120 24" fill="none" xmlns="http://www.w3.org/2000/svg">
<path d="M11.4797 3.49897C11.522 3.3958 11.594 3.30755 11.6866 3.24543C11.7792 3.18331 11.8882 3.15015 11.9997 3.15015C12.1112 3.15015 12.2201 3.18331 12.3127 3.24543C12.4053 3.30755 12.4774 3.3958 12.5197 3.49897L14.6447 8.60997C14.6844 8.70561 14.7498 8.78841 14.8336 8.84928C14.9174 8.91015 15.0164 8.94672 15.1197 8.95497L20.6377 9.39697C21.1367 9.43697 21.3387 10.06 20.9587 10.385L16.7547 13.987C16.6761 14.0542 16.6176 14.1417 16.5855 14.2399C16.5534 14.3382 16.5489 14.4434 16.5727 14.544L17.8577 19.929C17.8835 20.037 17.8767 20.1503 17.8382 20.2545C17.7997 20.3587 17.7312 20.4491 17.6413 20.5144C17.5514 20.5797 17.4442 20.6168 17.3332 20.6212C17.2222 20.6256 17.1124 20.597 17.0177 20.539L12.2927 17.654C12.2044 17.6002 12.103 17.5717 11.9997 17.5717C11.8963 17.5717 11.7949 17.6002 11.7067 17.654L6.98166 20.54C6.88692 20.598 6.77712 20.6266 6.66612 20.6222C6.55512 20.6178 6.44791 20.5807 6.35803 20.5154C6.26815 20.4501 6.19962 20.3597 6.16111 20.2555C6.1226 20.1513 6.11584 20.038 6.14166 19.93L7.42666 14.544C7.45049 14.4434 7.44611 14.3381 7.414 14.2399C7.38189 14.1416 7.3233 14.0541 7.24466 13.987L3.04066 10.385C2.95648 10.3126 2.89557 10.2169 2.86561 10.11C2.83565 10.0031 2.83797 9.88971 2.87228 9.78412C2.90659 9.67852 2.97135 9.58543 3.05843 9.51654C3.1455 9.44766 3.25101 9.40605 3.36166 9.39697L8.87966 8.95497C8.98291 8.94672 9.08188 8.91015 9.16569 8.84928C9.2495 8.78841 9.31488 8.70561 9.35466 8.60997L11.4797 3.49897Z" fill="#FFC107" stroke="#FFC107" stroke-width="1.5" stroke-linecap="round" stroke-linejoin="round"/>
<path d="M35.4797 3.49897C35.522 3.3958 35.594 3.30755 35.6866 3.24543C35.7792 3.18331 35.8882 3.15015 35.9997 3.15015C36.1112 3.15015 36.2201 3.18331 36.3127 3.24543C36.4053 3.30755 36.4774 3.3958 36.5197 3.49897L38.6447 8.60997C38.6844 8.70561 38.7498 8.78841 38.8336 8.84928C38.9174 8.91015 39.0164 8.94672 39.1197 8.95497L44.6377 9.39697C45.1367 9.43697 45.3387 10.06 44.9587 10.385L40.7547 13.987C40.6761 14.0542 40.6176 14.1417 40.5855 14.2399C40.5534 14.3382 40.5489 14.4434 40.5727 14.544L41.8577 19.929C41.8835 20.037 41.8767 20.1503 41.8382 20.2545C41.7997 20.3587 41.7312 20.4491 41.6413 20.5144C41.5514 20.5797 41.4442 20.6168 41.3332 20.6212C41.2222 20.6256 41.1124 20.597 41.0177 20.539L36.2927 17.654C36.2044 17.6002 36.103 17.5717 35.9997 17.5717C35.8963 17.5717 35.7949 17.6002 35.7067 17.654L30.9817 20.54C30.8869 20.598 30.7771 20.6266 30.6661 20.6222C30.5551 20.6178 30.4479 20.5807 30.358 20.5154C30.2681 20.4501 30.1996 20.3597 30.1611 20.2555C30.1226 20.1513 30.1158 20.038 30.1417 19.93L31.4267 14.544C31.4505 14.4434 31.4461 14.3381 31.414 14.2399C31.3819 14.1416 31.3233 14.0541 31.2447 13.987L27.0407 10.385C26.9565 10.3126 26.8956 10.2169 26.8656 10.11C26.8357 10.0031 26.838 9.88971 26.8723 9.78412C26.9066 9.67852 26.9714 9.58543 27.0584 9.51654C27.1455 9.44766 27.251 9.40605 27.3617 9.39697L32.8797 8.95497C32.9829 8.94672 33.0819 8.91015 33.1657 8.84928C33.2495 8.78841 33.3149 8.70561 33.3547 8.60997L35.4797 3.49897Z" fill="#FFC107" stroke="#FFC107" stroke-width="1.5" stroke-linecap="round" stroke-linejoin="round"/>
<path d="M59.4797 3.49897C59.522 3.3958 59.594 3.30755 59.6866 3.24543C59.7792 3.18331 59.8882 3.15015 59.9997 3.15015C60.1112 3.15015 60.2201 3.18331 60.3127 3.24543C60.4053 3.30755 60.4774 3.3958 60.5197 3.49897L62.6447 8.60997C62.6844 8.70561 62.7498 8.78841 62.8336 8.84928C62.9174 8.91015 63.0164 8.94672 63.1197 8.95497L68.6377 9.39697C69.1367 9.43697 69.3387 10.06 68.9587 10.385L64.7547 13.987C64.6761 14.0542 64.6176 14.1417 64.5855 14.2399C64.5534 14.3382 64.5489 14.4434 64.5727 14.544L65.8577 19.929C65.8835 20.037 65.8767 20.1503 65.8382 20.2545C65.7997 20.3587 65.7312 20.4491 65.6413 20.5144C65.5514 20.5797 65.4442 20.6168 65.3332 20.6212C65.2222 20.6256 65.1124 20.597 65.0177 20.539L60.2927 17.654C60.2044 17.6002 60.103 17.5717 59.9997 17.5717C59.8963 17.5717 59.7949 17.6002 59.7067 17.654L54.9817 20.54C54.8869 20.598 54.7771 20.6266 54.6661 20.6222C54.5551 20.6178 54.4479 20.5807 54.358 20.5154C54.2681 20.4501 54.1996 20.3597 54.1611 20.2555C54.1226 20.1513 54.1158 20.038 54.1417 19.93L55.4267 14.544C55.4505 14.4434 55.4461 14.3381 55.414 14.2399C55.3819 14.1416 55.3233 14.0541 55.2447 13.987L51.0407 10.385C50.9565 10.3126 50.8956 10.2169 50.8656 10.11C50.8357 10.0031 50.838 9.88971 50.8723 9.78412C50.9066 9.67852 50.9714 9.58543 51.0584 9.51654C51.1455 9.44766 51.251 9.40605 51.3617 9.39697L56.8797 8.95497C56.9829 8.94672 57.0819 8.91015 57.1657 8.84928C57.2495 8.78841 57.3149 8.70561 57.3547 8.60997L59.4797 3.49897Z" fill="#FFC107" stroke="#FFC107" stroke-width="1.5" stroke-linecap="round" stroke-linejoin="round"/>
<path d="M83.4797 3.49897C83.522 3.3958 83.594 3.30755 83.6866 3.24543C83.7792 3.18331 83.8882 3.15015 83.9997 3.15015C84.1112 3.15015 84.2201 3.18331 84.3127 3.24543C84.4053 3.30755 84.4774 3.3958 84.5197 3.49897L86.6447 8.60997C86.6844 8.70561 86.7498 8.78841 86.8336 8.84928C86.9174 8.91015 87.0164 8.94672 87.1197 8.95497L92.6377 9.39697C93.1367 9.43697 93.3387 10.06 92.9587 10.385L88.7547 13.987C88.6761 14.0542 88.6176 14.1417 88.5855 14.2399C88.5534 14.3382 88.5489 14.4434 88.5727 14.544L89.8577 19.929C89.8835 20.037 89.8767 20.1503 89.8382 20.2545C89.7997 20.3587 89.7312 20.4491 89.6413 20.5144C89.5514 20.5797 89.4442 20.6168 89.3332 20.6212C89.2222 20.6256 89.1124 20.597 89.0177 20.539L84.2927 17.654C84.2044 17.6002 84.103 17.5717 83.9997 17.5717C83.8963 17.5717 83.7949 17.6002 83.7067 17.654L78.9817 20.54C78.8869 20.598 78.7771 20.6266 78.6661 20.6222C78.5551 20.6178 78.4479 20.5807 78.358 20.5154C78.2681 20.4501 78.1996 20.3597 78.1611 20.2555C78.1226 20.1513 78.1158 20.038 78.1417 19.93L79.4267 14.544C79.4505 14.4434 79.4461 14.3381 79.414 14.2399C79.3819 14.1416 79.3233 14.0541 79.2447 13.987L75.0407 10.385C74.9565 10.3126 74.8956 10.2169 74.8656 10.11C74.8357 10.0031 74.838 9.88971 74.8723 9.78412C74.9066 9.67852 74.9714 9.58543 75.0584 9.51654C75.1455 9.44766 75.251 9.40606 75.3617 9.39697L80.8797 8.95497C80.9829 8.94672 81.0819 8.91015 81.1657 8.84928C81.2495 8.78841 81.3149 8.70561 81.3547 8.60997L83.4797 3.49897Z" stroke="#FFC107" stroke-width="1.5" stroke-linecap="round" stroke-linejoin="round"/>
<path d="M107.48 3.49897C107.522 3.3958 107.594 3.30755 107.687 3.24543C107.779 3.18331 107.888 3.15015 108 3.15015C108.111 3.15015 108.22 3.18331 108.313 3.24543C108.405 3.30755 108.477 3.3958 108.52 3.49897L110.645 8.60997C110.684 8.70561 110.75 8.78841 110.834 8.84928C110.917 8.91015 111.016 8.94672 111.12 8.95497L116.638 9.39697C117.137 9.43697 117.339 10.06 116.959 10.385L112.755 13.987C112.676 14.0542 112.618 14.1417 112.585 14.2399C112.553 14.3382 112.549 14.4434 112.573 14.544L113.858 19.929C113.883 20.037 113.877 20.1503 113.838 20.2545C113.8 20.3587 113.731 20.4491 113.641 20.5144C113.551 20.5797 113.444 20.6168 113.333 20.6212C113.222 20.6256 113.112 20.597 113.018 20.539L108.293 17.654C108.204 17.6002 108.103 17.5717 108 17.5717C107.896 17.5717 107.795 17.6002 107.707 17.654L102.982 20.54C102.887 20.598 102.777 20.6266 102.666 20.6222C102.555 20.6178 102.448 20.5807 102.358 20.5154C102.268 20.4501 102.2 20.3597 102.161 20.2555C102.123 20.1513 102.116 20.038 102.142 19.93L103.427 14.544C103.45 14.4434 103.446 14.3381 103.414 14.2399C103.382 14.1416 103.323 14.0541 103.245 13.987L99.0407 10.385C98.9565 10.3126 98.8956 10.2169 98.8656 10.11C98.8357 10.0031 98.838 9.88971 98.8723 9.78412C98.9066 9.67852 98.9714 9.58543 99.0584 9.51654C99.1455 9.44766 99.251 9.40606 99.3617 9.39697L104.88 8.95497C104.983 8.94672 105.082 8.91015 105.166 8.84928C105.249 8.78841 105.315 8.70561 105.355 8.60997L107.48 3.49897Z" stroke="#FFC107" stroke-width="1.5" stroke-linecap="round" stroke-linejoin="round"/>
</svg>
